<svg width="30" height="30" viewBox="0 0 30 30" fill="none" xmlns="http://www.w3.org/2000/svg">
<path d="M5.75012 6.25L7.83012 6.61L8.79312 18.083C8.87012 19.02 9.65312 19.739 10.5931 19.736H21.5021C22.3991 19.738 23.1601 19.078 23.2871 18.19L24.2361 11.632C24.3421 10.899 23.8331 10.219 23.1011 10.113C23.0371 10.104 8.16412 10.099 8.16412 10.099" stroke="#AAACAE" stroke-width="1.5" stroke-linecap="round" stroke-linejoin="round"/>
<path d="M17.1251 13.7949H19.8981" stroke="#AAACAE" stroke-width="1.5" stroke-linecap="round" stroke-linejoin="round"/>
<path fill-rule="evenodd" clip-rule="evenodd" d="M10.1545 23.2026C10.4555 23.2026 10.6985 23.4466 10.6985 23.7466C10.6985 24.0476 10.4555 24.2916 10.1545 24.2916C9.85347 24.2916 9.61047 24.0476 9.61047 23.7466C9.61047 23.4466 9.85347 23.2026 10.1545 23.2026Z" fill="#AAACAE" stroke="#AAACAE" stroke-width="1.5" stroke-linecap="round" stroke-linejoin="round"/>
<path fill-rule="evenodd" clip-rule="evenodd" d="M21.4347 23.2026C21.7357 23.2026 21.9797 23.4466 21.9797 23.7466C21.9797 24.0476 21.7357 24.2916 21.4347 24.2916C21.1337 24.2916 20.8907 24.0476 20.8907 23.7466C20.8907 23.4466 21.1337 23.2026 21.4347 23.2026Z" fill="#AAACAE" stroke="#AAACAE" stroke-width="1.5" stroke-linecap="round" stroke-linejoin="round"/>
</svg>
