<svg width="30" height="30" viewBox="0 0 30 30" fill="none" xmlns="http://www.w3.org/2000/svg">
<path d="M12.6437 23.7821V20.7152C12.6437 19.9381 13.2757 19.3067 14.0584 19.3018H16.9326C17.7189 19.3018 18.3563 19.9346 18.3563 20.7152V23.7732C18.3562 24.4473 18.904 24.9951 19.5829 25H21.5438C22.4596 25.0023 23.3388 24.6428 23.9872 24.0007C24.6356 23.3586 25 22.4868 25 21.5775V12.8658C25 12.1314 24.6721 11.4347 24.1046 10.9635L17.443 5.67427C16.2785 4.74912 14.6154 4.77901 13.4854 5.74538L6.96701 10.9635C6.37274 11.4208 6.01755 12.1196 6 12.8658V21.5686C6 23.4637 7.54738 25 9.45617 25H11.3723C11.6992 25.0023 12.0135 24.8751 12.2455 24.6464C12.4775 24.4178 12.6079 24.1067 12.6079 23.7821H12.6437Z" fill="#FBA20C"/>
</svg>
