<svg width="19" height="20" viewBox="0 0 19 20" fill="none" xmlns="http://www.w3.org/2000/svg">
<mask id="path-1-inside-1_408_92" fill="white">
<path d="M9.5 0C10.7598 0 11.968 0.526784 12.8588 1.46447C13.7496 2.40215 14.25 3.67392 14.25 5C14.25 6.32608 13.7496 7.59785 12.8588 8.53553C11.968 9.47322 10.7598 10 9.5 10C8.24022 10 7.03204 9.47322 6.14124 8.53553C5.25044 7.59785 4.75 6.32608 4.75 5C4.75 3.67392 5.25044 2.40215 6.14124 1.46447C7.03204 0.526784 8.24022 0 9.5 0ZM9.5 12.5C14.7487 12.5 19 14.7375 19 17.5V20H0V17.5C0 14.7375 4.25125 12.5 9.5 12.5Z"/>
</mask>
<path d="M14.25 5H15.75H14.25ZM9.5 10V11.5V10ZM4.75 5H3.25H4.75ZM19 20V21.5H20.5V20H19ZM0 20H-1.5V21.5H0V20ZM9.5 1.5C10.3364 1.5 11.1551 1.84904 11.7713 2.49759L13.9463 0.431342C12.7808 -0.795468 11.1832 -1.5 9.5 -1.5V1.5ZM11.7713 2.49759C12.3899 3.14876 12.75 4.04762 12.75 5H15.75C15.75 3.30021 15.1092 1.65554 13.9463 0.431342L11.7713 2.49759ZM12.75 5C12.75 5.95238 12.3899 6.85124 11.7713 7.50241L13.9463 9.56866C15.1092 8.34446 15.75 6.69979 15.75 5H12.75ZM11.7713 7.50241C11.1551 8.15096 10.3364 8.5 9.5 8.5V11.5C11.1832 11.5 12.7808 10.7955 13.9463 9.56866L11.7713 7.50241ZM9.5 8.5C8.6636 8.5 7.84487 8.15096 7.22874 7.50241L5.05374 9.56866C6.21921 10.7955 7.81685 11.5 9.5 11.5V8.5ZM7.22874 7.50241C6.61013 6.85124 6.25 5.95238 6.25 5H3.25C3.25 6.69979 3.89076 8.34446 5.05374 9.56866L7.22874 7.50241ZM6.25 5C6.25 4.04762 6.61013 3.14876 7.22874 2.49759L5.05374 0.431342C3.89076 1.65554 3.25 3.30021 3.25 5H6.25ZM7.22874 2.49759C7.84487 1.84904 8.6636 1.5 9.5 1.5V-1.5C7.81685 -1.5 6.21921 -0.795468 5.05374 0.431342L7.22874 2.49759ZM9.5 14C11.9312 14 14.0566 14.5214 15.5197 15.2914C17.0516 16.0977 17.5 16.9524 17.5 17.5H20.5C20.5 15.2851 18.8228 13.6398 16.9169 12.6367C14.9421 11.5973 12.3176 11 9.5 11V14ZM17.5 17.5V20H20.5V17.5H17.5ZM19 18.5H0V21.5H19V18.5ZM1.5 20V17.5H-1.5V20H1.5ZM1.5 17.5C1.5 16.9524 1.94839 16.0977 3.48034 15.2914C4.94338 14.5214 7.06883 14 9.5 14V11C6.68242 11 4.05787 11.5973 2.0831 12.6367C0.177233 13.6398 -1.5 15.2851 -1.5 17.5H1.5Z" fill="#AAACAE" mask="url(#path-1-inside-1_408_92)"/>
</svg>
