<svg width="51" height="30" viewBox="0 0 51 30" fill="none" xmlns="http://www.w3.org/2000/svg">
<path fill-rule="evenodd" clip-rule="evenodd" d="M20.6315 6.36149C23.4 8.18957 25.2371 11.319 25.2766 14.8786V25.3431H45.9104V4.65694H25.7887C24.3487 3.13959 22.5952 1.92483 20.6315 1.11918V0H50.5556V30H20.6315V6.36149Z" fill="#FBA20C"/>
<path fill-rule="evenodd" clip-rule="evenodd" d="M25.2755 14.8369C25.222 11.2948 23.3884 8.18224 20.6315 6.36149L20.5931 6.33634C18.9743 5.27386 17.0396 4.65694 14.962 4.65694C9.26824 4.65694 4.64516 9.29164 4.64516 15.0002C4.64516 20.7094 9.26824 25.3431 14.962 25.3431C17.0558 25.3431 19.0045 24.7167 20.6315 23.6386V28.8812C18.8837 29.6041 16.9688 30 14.962 30C6.70412 30 0 23.2789 0 15.0002C0 6.72136 6.70412 0 14.962 0C16.9688 0 18.8837 0.396885 20.6315 1.11918L20.6768 1.13816C22.6219 1.94474 24.3604 3.151 25.7887 4.65694L25.8189 4.68849C28.3645 7.37508 29.9241 11.0064 29.9241 15.0002C29.9241 19.0096 28.3517 22.6537 25.7887 25.3431H25.2766V15.1219L25.2789 15.0002L25.2766 14.8786L25.2755 14.8369Z" fill="#F54B55"/>
</svg>
